<?xml version="1.0" standalone="no"?>
<!DOCTYPE svg PUBLIC "-//W3C//DTD SVG 20010904//EN"
 "http://www.w3.org/TR/2001/REC-SVG-20010904/DTD/svg10.dtd">
<svg version="1.0" xmlns="http://www.w3.org/2000/svg"
 width="300.000000pt" height="300.000000pt" viewBox="0 0 300.000000 300.000000"
 preserveAspectRatio="xMidYMid meet">

<g transform="translate(0.000000,300.000000) scale(0.100000,-0.100000)"
fill="#ffbb00" stroke="none">
<path d="M1355 2994 c-16 -2 -60 -9 -97 -15 l-67 -11 -3 -115 -3 -115 -86 -28
c-48 -16 -124 -47 -169 -70 l-83 -42 -82 82 -82 81 -79 -59 c-94 -71 -252
-231 -318 -321 l-47 -65 81 -81 82 -82 -42 -83 c-23 -45 -54 -121 -70 -169
l-28 -86 -115 -3 -115 -3 -14 -72 c-17 -94 -17 -380 0 -474 l14 -72 115 -3
115 -3 28 -86 c16 -48 47 -124 70 -169 l42 -83 -82 -82 -81 -81 47 -65 c66
-90 224 -250 318 -321 l79 -59 82 81 82 82 83 -42 c45 -23 121 -54 169 -70
l86 -28 3 -115 3 -115 72 -14 c94 -17 380 -17 474 0 l72 14 3 115 3 115 86 28
c48 16 124 47 169 70 l83 42 82 -82 82 -81 79 59 c94 71 252 231 318 321 l47
65 -81 81 -82 82 42 83 c23 45 54 121 70 169 l28 86 115 3 115 3 14 72 c7 41
13 143 13 237 0 94 -6 196 -13 237 l-14 72 -115 3 -115 3 -28 86 c-16 48 -47
124 -70 169 l-42 83 82 82 81 81 -47 65 c-66 90 -224 250 -318 321 l-79 59
-82 -81 -82 -82 -83 42 c-45 23 -121 54 -169 70 l-86 28 -3 115 -3 115 -62 12
c-64 12 -339 22 -392 14z m290 -44 c135 -16 124 -4 127 -132 l3 -111 90 -29
c50 -16 137 -52 193 -80 l104 -51 78 78 79 78 43 -28 c56 -36 277 -257 313
-313 l28 -43 -78 -79 -78 -78 51 -104 c28 -56 64 -143 80 -193 l29 -90 110 -3
c90 -2 112 -6 117 -18 3 -9 11 -69 18 -135 9 -91 9 -147 0 -238 -7 -66 -15
-126 -18 -135 -5 -12 -27 -16 -117 -18 l-110 -3 -29 -90 c-16 -49 -52 -137
-80 -193 l-51 -104 78 -78 78 -79 -28 -43 c-36 -56 -257 -277 -313 -313 l-43
-28 -79 78 -78 78 -104 -51 c-56 -28 -143 -64 -193 -80 l-90 -29 -3 -110 c-2
-90 -6 -112 -18 -117 -9 -3 -69 -11 -135 -18 -91 -9 -147 -9 -238 0 -66 7
-126 15 -135 18 -12 5 -16 27 -18 117 l-3 110 -90 29 c-49 16 -137 52 -193 80
l-104 51 -78 -78 -79 -78 -43 28 c-56 36 -277 257 -313 313 l-28 43 78 79 78
78 -51 104 c-28 56 -64 144 -80 193 l-29 90 -110 3 c-90 2 -112 6 -117 18 -3
9 -11 69 -18 135 -9 91 -9 147 0 238 7 66 15 126 18 135 5 12 27 16 117 18
l110 3 29 90 c16 50 52 137 80 193 l51 104 -78 78 -78 79 28 43 c36 56 257
277 313 313 l43 28 79 -78 78 -78 104 51 c56 28 144 64 193 80 l90 29 3 111
c3 128 -7 117 118 131 101 12 197 12 299 1z"/>
<path d="M1825 1941 c-27 -3 -75 -18 -105 -33 -335 -164 -243 -707 125 -735
88 -7 154 13 213 62 98 84 115 228 40 338 -19 27 -21 27 -129 27 l-110 0 3
-82 3 -83 40 -5 c58 -7 55 -34 -5 -38 -96 -6 -164 67 -157 171 6 99 62 152
160 152 34 0 72 -4 85 -8 22 -8 22 -8 22 103 0 105 -1 111 -22 119 -37 13
-109 19 -163 12z"/>
<path d="M790 1676 c0 -223 -2 -257 -16 -271 -10 -9 -25 -14 -35 -12 -18 5
-19 -3 -19 -103 0 -121 -1 -120 76 -120 57 0 112 28 156 79 57 67 61 88 65
399 l5 282 -116 0 -116 0 0 -254z"/>
<path d="M1202 1410 c-33 -21 -62 -71 -62 -110 0 -38 38 -97 74 -114 92 -44
186 15 186 117 0 44 -4 53 -39 88 -33 33 -45 39 -82 39 -26 0 -57 -8 -77 -20z"/>
<path d="M2299 1413 c-85 -52 -78 -182 11 -228 83 -43 190 23 190 117 0 41
-34 97 -70 115 -35 18 -100 16 -131 -4z"/>
</g>
</svg>
